<mxfile host="Electron" modified="2024-06-23T18:14:25.924Z" agent="Mozilla/5.0 (X11; Linux x86_64) AppleWebKit/537.36 (KHTML, like Gecko) draw.io/24.6.1 Chrome/124.0.6367.207 Electron/30.0.6 Safari/537.36" etag="lP5sAiLcdrpELhS-hqQR" version="24.6.1" type="device">
  <diagram name="Page-1" id="vVJTJihIjDBYve6A6j79">
    <mxGraphModel dx="908" dy="893" grid="1" gridSize="10" guides="1" tooltips="1" connect="1" arrows="1" fold="1" page="1" pageScale="1" pageWidth="500" pageHeight="500" background="#ffffff" math="0" shadow="0">
      <root>
        <mxCell id="0" />
        <mxCell id="1" parent="0" />
        <mxCell id="RYNpQwTxYm0rjckXWOT_-19" value="" style="ellipse;whiteSpace=wrap;html=1;aspect=fixed;strokeColor=#6bff90;fillColor=none;strokeWidth=13;movable=1;resizable=1;rotatable=1;deletable=1;editable=1;locked=0;connectable=1;" parent="1" vertex="1">
          <mxGeometry x="10" y="10" width="980" height="980" as="geometry" />
        </mxCell>
        <mxCell id="RYNpQwTxYm0rjckXWOT_-20" value="" style="endArrow=classic;html=1;rounded=0;strokeWidth=18;strokeColor=#6bff90;endFill=1;startArrow=halfCircle;startFill=0;startSize=2;endSize=31;fillColor=#60a917;" parent="1" edge="1">
          <mxGeometry width="50" height="50" relative="1" as="geometry">
            <mxPoint x="140" y="500" as="sourcePoint" />
            <mxPoint x="860" y="501" as="targetPoint" />
            <Array as="points">
              <mxPoint x="560" y="500" />
            </Array>
          </mxGeometry>
        </mxCell>
      </root>
    </mxGraphModel>
  </diagram>
</mxfile>
